
<svg xmlns="http://www.w3.org/2000/svg" viewBox="0 0 24 24" fill="none">
  <path d="M19.324 5.489c-.032.158-.143.289-.291.344-.149.055-.34.033-.463-.058-.123-.091-.184-.252-.159-.41.025-.159.136-.299.284-.359.148-.06.345-.034.473.063.128.098.187.263.156.42zM17.76 9.844a1.125 1.125 0 01-.033-1.587c.212-.225.502-.354.806-.359.304-.005.598.114.817.33.218.217.34.51.337.815-.003.305-.129.596-.349.811a1.141 1.141 0 01-1.578-.01zm3.551-7.318c-.014.103-.067.199-.146.264a.385.385 0 01-.29.088.388.388 0 01-.276-.13.388.388 0 01-.078-.292c.016-.1.071-.193.153-.253.081-.06.193-.08.293-.053s.184.099.224.196c.04.097.04.183.12.18h.108zM23.046 2.9c-.034.159-.146.29-.294.344-.149.054-.34.033-.462-.058-.123-.091-.184-.252-.159-.41.025-.159.136-.3.284-.36.148-.06.345-.033.473.063.128.098.187.263.156.42l.002.001zM10.75 4.65a.74.74 0 01.74-.738.74.74 0 01.739.739.74.74 0 01-.739.739.74.74 0 01-.74-.739z" fill="#017cee"/>
  <path d="M14.523 17.33a.738.738 0 01-.739-.739.739.739 0 011.477 0 .739.739 0 01-.738.739zm.001-5.05a4.31 4.31 0 014.315 4.313c0 2.38-1.935 4.313-4.315 4.313a4.31 4.31 0 01-4.314-4.313 4.31 4.31 0 014.314-4.314zm-7.21-7.63c1.312.3 2.314 1.4 2.475 2.738h2.695a.58.58 0 110 1.158H9.79a2.898 2.898 0 01-2.899 2.896 2.897 2.897 0 01-2.896-2.896 2.897 2.897 0 012.32-2.838V4.65zM.957 11.592h8.694c.55 0 .999.443 1.003.993l.032 3.576a.586.586 0 01-.583.589H8.354a.585.585 0 01-.584-.582v-1.049l-6.813.014v1.035c0 .32-.26.58-.58.581H.58c-.32 0-.58-.26-.581-.58l.082-3.588c.004-.55.426-.989.877-.989z" fill="#017cee"/>
  <path d="M6.896 16.593c2.38 0 4.313 1.934 4.313 4.313a.582.582 0 11-1.164 0c0-1.74-1.41-3.149-3.15-3.149a3.151 3.151 0 00-3.149 3.149.582.582 0 11-1.164 0c0-2.38 1.934-4.313 4.314-4.313z" fill="#017cee"/>
</svg>
