
<svg xmlns="http://www.w3.org/2000/svg" viewBox="0 0 24 24" fill="none" class="icon-python">
  <path d="M11.89 2c-5.026 0-4.716 2.178-4.716 2.178l0.006 2.254h4.798v0.675h-6.71c0 0-3.265-0.371-3.265 4.781 0 5.153 2.852 4.971 2.852 4.971h1.702v-2.391c0 0-0.091-2.852 2.806-2.852h4.829c0 0 2.712 0.044 2.712-2.623v-4.412c0 0 0.413-2.582-4.969-2.582zM9.007 3.548c0.478 0 0.862 0.385 0.862 0.862 0 0.475-0.385 0.86-0.862 0.86-0.475 0-0.86-0.385-0.86-0.86 0-0.477 0.385-0.862 0.86-0.862z" fill="#3870a1"/>
  <path d="M12.11 22.001c5.026 0 4.716-2.178 4.716-2.178l-0.006-2.254h-4.798v-0.675h6.71c0 0 3.265 0.372 3.265-4.781 0-5.153-2.852-4.971-2.852-4.971h-1.702v2.391c0 0 0.091 2.852-2.806 2.852h-4.829c0 0-2.712-0.044-2.712 2.623v4.412c0 0-0.413 2.582 4.969 2.582zM14.993 20.453c-0.478 0-0.862-0.385-0.862-0.862 0-0.475 0.385-0.86 0.862-0.86 0.475 0 0.86 0.385 0.86 0.86 0 0.477-0.385 0.862-0.86 0.862z" fill="#ffd43b"/>
</svg>
