
<svg xmlns="http://www.w3.org/2000/svg" viewBox="0 0 24 24" fill="none">
  <path d="M10.85 0c-.694 1.950-1.967 3.59-3.67 4.76a9.969 9.969 0 00-3.12 4.06A10.22 10.22 0 003 14v.48c.31 2.54 1.53 4.93 3.58 6.58 1.12.909 2.39 1.46 3.57 2.21-1.22-.86-2.64-1.97-3.41-3.21-1.06-1.77-1.38-3.77-1.38-5.79 0-1.75.31-3.49.91-5.14.31-.84.75-1.71 1.35-2.4-1.32 1.15-2.18 2.83-2.58 4.15-.64 2.14-.65 4.37-.4 6.54.27 2.24 1.05 4.54 2.5 6.11l1.56 1.68c-1.01-1.21-1.67-2.88-1.94-4.26a15.944 15.944 0 01-.25-5.2c.26-1.97.91-3.87 1.69-5.67.92-2.05 1.82-4.33 3.65-5.92zm8.1 5.21c1.4-1.64 3.92-2.53 6.03-1.87-.63.41-1.18.92-1.52 1.61-.45.94-.38 2.05-.86 3.01-.12.45-.42.83-.75 1.16-.4.42-.92.7-1.33 1.12-.91.92-1.06 2.3-1.45 3.5-.53 1.95-1.43 3.76-2.44 5.51.26-.16.5-.35.71-.56.63-.64 1.07-1.43 1.49-2.21.58-1.06 1.04-2.18 1.54-3.27.69-1.43 1.12-3.02 2.16-4.27.58-.66 1.04-1.42 1.29-2.28.33-1.07.39-2.2.23-3.29-.09-.61-.28-1.2-.53-1.76 1.07 1.03 1.89 2.32 2.37 3.76.54 1.67.6 3.45.42 5.19-.23 2.31-1.05 4.62-2.55 6.37.28-.32.58-.62.81-.97.64-.93 1.22-1.9 1.59-2.97.43-1.2.67-2.45.89-3.7.21-1.4.24-2.83.06-4.23-.3-2.34-1.33-4.65-3.13-6.25-.31-.27-.64-.52-.97-.76 1.87 1.93 2.83 4.61 2.64 7.23 0-.47-.09-.93-.22-1.38-.42-1.46-1.39-2.7-2.47-3.74-.92-.86-1.98-1.6-3.14-2.12-.57-.26-1.16-.5-1.79-.64-.13-.03-.27-.06-.41-.08.88.2 1.7.56 2.47 1z" fill="#E25A1C"/>
</svg>
